# xmcd
#
# Track frame offsets:
#	182
#	12807
#	25192
#	36537
#	47715
#	58915
#	71515
#	83472
#	95495
#	107002
#
# Disc length: 1586 seconds
#
# Revision: 2
# Processed by: cddbd v1.5.2PL0 Copyright (c) Steve Scherf et al.
# Submitted via: audiograbber 1.83.01
#
DISCID=7b06300a
DTITLE=Various Artist - Absolute Motown CD 1
DYEAR=1900
DGENRE=Motown
TTITLE0=Martha Reeves and The Vandellas - Nowhere To Run
TTITLE1=The Temptations - The Way You Do The Things You Do
TTITLE2=Mary Wells - You Lost The Sweetest Boy
TTITLE3=The Marvelettes - Too Many Fish In The Sea
TTITLE4=The Velvelettes - Needle In A Haystack
TTITLE5=Jimmy Ruffin - It's Wonderful (To Be Loved By You)
TTITLE6=Kim Weston - Helpless
TTITLE7=Isley Brothers - I Guess I'll Always Love You
TTITLE8=The Elgins - Heaven Must Have Sent You
TTITLE9=The Four Tops - Shake Me, Wake Me (When It's Over)
EXTD=
EXTT0=
EXTT1=
EXTT2=
EXTT3=
EXTT4=
EXTT5=
EXTT6=
EXTT7=
EXTT8=
EXTT9=
PLAYORDER=
